<svg width="381" height="103" viewBox="0 0 381 103" fill="none" xmlns="http://www.w3.org/2000/svg">
<path d="M103 14H366.625C373.592 14 378.424 20.9456 376.001 27.4776L355.23 83.4776C353.776 87.3982 350.036 90 345.855 90H103V14Z" fill="#F4F4F4"/>
<path fill-rule="evenodd" clip-rule="evenodd" d="M10 0C4.47715 0 0 4.47715 0 10V93C0 98.5229 4.47715 103 10 103H93C98.5229 103 103 98.5229 103 93V13.8171H116.817L103 0H10Z" fill="#1877F2"/>
<path d="M25.375 73.1667C24.075 73.1667 22.9375 72.7605 21.9625 71.948C20.9875 71.1355 20.5 70.1875 20.5 69.1042V33.8959C20.5 32.8125 20.9875 31.8646 21.9625 31.0521C22.9375 30.2396 24.075 29.8334 25.375 29.8334H67.625C68.925 29.8334 70.0625 30.2396 71.0375 31.0521C72.0125 31.8646 72.5 32.8125 72.5 33.8959V48.4532L85.5 37.6198V65.3802L72.5 54.5469V69.1042C72.5 70.1875 72.0125 71.1355 71.0375 71.948C70.0625 72.7605 68.925 73.1667 67.625 73.1667H25.375Z" fill="white"/>
<path d="M157.947 37.9091C157.947 39.8681 157.581 41.546 156.847 42.9428C156.119 44.3337 155.124 45.399 153.864 46.1388C152.609 46.8787 151.186 47.2486 149.593 47.2486C148.001 47.2486 146.575 46.8787 145.314 46.1388C144.06 45.3931 143.065 44.3248 142.331 42.9339C141.603 41.5372 141.239 39.8622 141.239 37.9091C141.239 35.95 141.603 34.2751 142.331 32.8842C143.065 31.4875 144.06 30.4192 145.314 29.6793C146.575 28.9395 148.001 28.5696 149.593 28.5696C151.186 28.5696 152.609 28.9395 153.864 29.6793C155.124 30.4192 156.119 31.4875 156.847 32.8842C157.581 34.2751 157.947 35.95 157.947 37.9091ZM154.636 37.9091C154.636 36.5301 154.42 35.3671 153.988 34.4201C153.562 33.4672 152.97 32.7481 152.212 32.2628C151.455 31.7715 150.582 31.5259 149.593 31.5259C148.605 31.5259 147.732 31.7715 146.974 32.2628C146.217 32.7481 145.622 33.4672 145.19 34.4201C144.764 35.3671 144.551 36.5301 144.551 37.9091C144.551 39.2881 144.764 40.4541 145.19 41.407C145.622 42.3539 146.217 43.073 146.974 43.5643C147.732 44.0496 148.605 44.2923 149.593 44.2923C150.582 44.2923 151.455 44.0496 152.212 43.5643C152.97 43.073 153.562 42.3539 153.988 41.407C154.42 40.4541 154.636 39.2881 154.636 37.9091ZM161.061 47V28.8182H167.88C169.276 28.8182 170.448 29.0786 171.395 29.5994C172.348 30.1203 173.067 30.8364 173.553 31.7479C174.044 32.6534 174.289 33.6832 174.289 34.8374C174.289 36.0033 174.044 37.0391 173.553 37.9446C173.061 38.8501 172.336 39.5633 171.377 40.0842C170.419 40.5991 169.238 40.8565 167.835 40.8565H163.316V38.1488H167.391C168.208 38.1488 168.877 38.0067 169.398 37.7227C169.919 37.4386 170.303 37.0479 170.552 36.5508C170.806 36.0536 170.934 35.4825 170.934 34.8374C170.934 34.1922 170.806 33.6241 170.552 33.1328C170.303 32.6416 169.916 32.2598 169.389 31.9876C168.868 31.7094 168.196 31.5703 167.374 31.5703H164.355V47H161.061ZM177.15 47V28.8182H188.976V31.5792H180.444V36.5153H188.363V39.2763H180.444V44.239H189.047V47H177.15ZM207.277 28.8182V47H204.348L195.78 34.6154H195.629V47H192.336V28.8182H195.283L203.841 41.2116H204.001V28.8182H207.277ZM226.948 33.8164C226.865 33.0411 226.516 32.4374 225.901 32.0053C225.291 31.5733 224.498 31.3572 223.521 31.3572C222.835 31.3572 222.246 31.4608 221.755 31.668C221.264 31.8751 220.888 32.1562 220.627 32.5114C220.367 32.8665 220.234 33.2719 220.228 33.7276C220.228 34.1064 220.314 34.4349 220.485 34.7131C220.663 34.9912 220.902 35.228 221.204 35.4233C221.506 35.6127 221.841 35.7725 222.208 35.9027C222.574 36.0329 222.944 36.1424 223.317 36.2312L225.022 36.6573C225.708 36.8171 226.368 37.0331 227.002 37.3054C227.641 37.5777 228.212 37.9209 228.715 38.3352C229.224 38.7495 229.626 39.2496 229.922 39.8356C230.218 40.4215 230.366 41.1081 230.366 41.8952C230.366 42.9606 230.094 43.8987 229.549 44.7095C229.005 45.5144 228.218 46.1448 227.188 46.6005C226.164 47.0503 224.924 47.2752 223.468 47.2752C222.054 47.2752 220.826 47.0562 219.784 46.6183C218.748 46.1803 217.937 45.5411 217.351 44.7006C216.771 43.8602 216.458 42.8363 216.41 41.6289H219.651C219.698 42.2622 219.893 42.7889 220.237 43.2092C220.58 43.6294 221.027 43.9431 221.577 44.1502C222.134 44.3574 222.755 44.4609 223.442 44.4609C224.158 44.4609 224.785 44.3544 225.324 44.1413C225.868 43.9223 226.294 43.6205 226.602 43.2358C226.91 42.8452 227.067 42.3894 227.073 41.8686C227.067 41.3951 226.928 41.0045 226.655 40.6967C226.383 40.383 226.001 40.1226 225.51 39.9155C225.025 39.7024 224.457 39.513 223.806 39.3473L221.737 38.8146C220.24 38.4299 219.056 37.8469 218.186 37.0657C217.322 36.2785 216.89 35.2339 216.89 33.9318C216.89 32.8606 217.18 31.9225 217.76 31.1175C218.346 30.3126 219.142 29.6882 220.148 29.2443C221.154 28.7945 222.293 28.5696 223.566 28.5696C224.856 28.5696 225.987 28.7945 226.957 29.2443C227.934 29.6882 228.7 30.3067 229.257 31.0998C229.813 31.887 230.1 32.7925 230.118 33.8164H226.948ZM233.303 47V28.8182H245.128V31.5792H236.596V36.5153H244.515V39.2763H236.596V44.239H245.199V47H233.303ZM248.488 28.8182H252.519L257.916 41.9929H258.129L263.527 28.8182H267.558V47H264.397V34.5089H264.229L259.204 46.9467H256.842L251.817 34.4822H251.649V47H248.488V28.8182ZM274.438 28.8182V47H271.144V28.8182H274.438ZM292.946 28.8182V47H290.016L281.449 34.6154H281.298V47H278.005V28.8182H280.952L289.51 41.2116H289.67V28.8182H292.946ZM298.87 47H295.354L301.755 28.8182H305.821L312.231 47H308.715L303.859 32.5469H303.717L298.87 47ZM298.985 39.8711H308.573V42.5167H298.985V39.8711ZM314.626 47V28.8182H321.444C322.841 28.8182 324.013 29.0608 324.96 29.5462C325.913 30.0315 326.632 30.7121 327.117 31.5881C327.608 32.4581 327.854 33.4731 327.854 34.6332C327.854 35.7991 327.605 36.8112 327.108 37.6694C326.617 38.5217 325.892 39.1816 324.933 39.6491C323.974 40.1108 322.796 40.3416 321.4 40.3416H316.543V37.6072H320.956C321.773 37.6072 322.441 37.4948 322.962 37.2699C323.483 37.0391 323.868 36.7047 324.116 36.2667C324.371 35.8228 324.498 35.2783 324.498 34.6332C324.498 33.988 324.371 33.4376 324.116 32.9819C323.862 32.5202 323.474 32.171 322.953 31.9343C322.432 31.6916 321.761 31.5703 320.938 31.5703H317.92V47H314.626ZM324.019 38.7614L328.52 47H324.844L320.423 38.7614H324.019ZM204.304 56.075V79.225H207.654V56.075H204.304ZM206.904 64.7V67.45H211.004V64.7H206.904ZM190.204 57.9V73.875H201.454V57.9H198.154V63.525H193.504V57.9H190.204ZM193.504 66.1H198.154V71.2H193.504V66.1ZM212.527 73.975V76.675H233.477V73.975H212.527ZM221.302 69.6V75.075H224.627V69.6H221.302ZM214.877 57.575V60.2H227.827V62.675H214.927V69.175H218.227V65.275H231.127V57.575H214.877ZM214.927 67.85V70.525H231.652V67.85H214.927ZM250.3 56.05V79.2H253.65V56.05H250.3ZM252.775 64.9V67.625H256.85V64.9H252.775ZM244.225 58.45V59.025C244.225 65.3 241.35 69.55 235.275 72.7L237.125 75.225C244.825 71.35 247.475 65.4 247.475 58.45H244.225ZM236.55 58.45V61.125H245.925V58.45H236.55ZM274.448 56.075V79.225H277.798V56.075H274.448ZM267.623 58.475V59.075C267.623 65.275 265.223 69.475 258.573 72.675L260.298 75.325C268.523 71.35 270.923 65.55 270.923 58.475H267.623ZM259.798 58.475V61.1H269.198V58.475H259.798Z" fill="black"/>
</svg>
